<svg xmlns="http://www.w3.org/2000/svg" width="822.094" height="98.26" viewBox="0 0 822.094 98.26"><path id="Path_1" data-name="Path 1" d="M-223.666,34.44q-45.479,0-45.479-48.63,0-24.384,11.918-36.507t33.562-12.123a54.377,54.377,0,0,1,21.438,4.041A33.387,33.387,0,0,1-187.159-46.45q5.548,8.288,5.548,20.205h-20.411q0-9.178-5.89-14.452t-15.342-5.274q-12.877,0-19.178,7.671t-6.3,22.055v4.11q0,29.726,25.479,29.726,10,0,15.959-5.205T-201.337-2h19.726q0,12.055-5.479,20.205A33.327,33.327,0,0,1-202.022,30.4,54.618,54.618,0,0,1-223.666,34.44Zm79.178-95.616h24.931L-82.844,32.8h-21.644L-111.2,14.851h-42.74L-160.652,32.8H-181.2ZM-117.5-1.724l-8.9-23.836q-1.644-4.384-5.89-18.493h-.685q-4.247,14.11-5.89,18.493l-8.9,23.836Zm38.63-59.452h49.863q15.753,0,23.7,7.74T2.635-31.724Q2.635-12-13.8-5.423L5.375,32.8H-16.132L-32.707-2.272h-26.3V32.8H-78.872ZM-30.79-18.848q6.438,0,9.863-3.425t3.425-9.452q0-6.027-3.425-9.315t-9.863-3.288H-59.009v25.479ZM47.155-61.176H97.018q15.753,0,23.7,7.74t7.945,21.712q0,19.726-16.438,26.3L131.4,32.8H109.895L93.32-2.272h-26.3V32.8H47.155ZM95.238-18.848q6.438,0,9.863-3.425t3.425-9.452q0-6.027-3.425-9.315t-9.863-3.288H67.018v25.479ZM140.58-61.176h73.835v16.849H160.443v20.685h47.945V-6.793H160.443v22.74h54.794V32.8H140.58Zm85.89,0h19.315l36.164,51.1q1.644,2.329,5.479,9.178l.685-.411L287.7-9.259V-61.176h19.315V32.8H287.7L251.4-18.711a76.468,76.468,0,0,1-5.342-9.041l-.685.411q.411,5.89.411,8.219V32.8H226.47ZM342.634-44.053H313.593V-61.176h77.945v17.123H362.5V32.8H342.634Zm73.15-17.123h24.931L477.428,32.8H455.784l-6.712-17.945h-42.74L399.62,32.8H379.072ZM442.771-1.724l-8.9-23.836q-1.644-4.384-5.89-18.493h-.685q-4.247,14.11-5.89,18.493L412.5-1.724ZM481.4-61.176h19.863V15.536h50.685V32.8H481.4Z" transform="translate(269.645 63.32)" fill="none" stroke="#000" stroke-width="1" opacity="0.202"></path></svg>