<svg xmlns="http://www.w3.org/2000/svg" width="1401.148" height="166.85" viewBox="0 0 1401.148 166.85"><path id="Path_3" data-name="Path 3" d="M-191.593,103.03q-77.552,0-77.552-82.925,0-41.579,20.322-62.252t57.23-20.673q20.322,0,36.557,6.891a56.932,56.932,0,0,1,25.7,21.023q9.461,14.132,9.461,34.455h-34.805q0-15.651-10.044-24.644t-26.162-8.993q-21.958,0-32.7,13.081T-234.34,16.6v7.008q0,50.689,43.448,50.689,17.052,0,27.214-8.876t10.161-24.527h33.637q0,20.556-9.344,34.455a56.83,56.83,0,0,1-25.461,20.79Q-170.8,103.03-191.593,103.03ZM-56.577-60.017h42.514l62.6,160.244H11.632L.186,69.626H-72.694l-11.446,30.6h-35.039ZM-10.559,41.362-25.743.717q-2.8-7.475-10.044-31.535h-1.168Q-44.2-6.758-47,.717L-62.183,41.362ZM55.314-60.017h85.027q26.863,0,40.411,13.2T194.3-9.795q0,33.637-28.031,44.85l32.7,65.172H162.3l-28.265-59.8H89.185v59.8H55.314ZM137.3,12.163q10.979,0,16.819-5.84t5.84-16.118q0-10.278-5.84-15.884T137.3-31.285H89.185V12.163Zm132.914-72.18h85.027q26.863,0,40.411,13.2T409.205-9.795q0,33.637-28.031,44.85l32.7,65.172H377.2l-28.265-59.8h-44.85v59.8H270.218Zm81.991,72.18q10.979,0,16.819-5.84t5.84-16.118q0-10.278-5.84-15.884t-16.819-5.606h-48.12V12.163Zm77.319-72.18H555.434v28.732H463.4V3.987h81.757V32.719H463.4V71.5h93.437v28.732H429.528Zm146.462,0h32.936l61.668,87.13q2.8,3.971,9.344,15.651l1.168-.7-.7-13.548V-60.017h32.936V100.227H680.405L618.5,12.4a130.386,130.386,0,0,1-9.11-15.417l-1.168.7q.7,10.044.7,14.016v88.531H575.99Zm198.086,29.2H724.554v-29.2H857.468v29.2H807.946V100.227H774.075Zm124.738-29.2h42.514l62.6,160.244H967.022l-11.446-30.6H882.7l-11.446,30.6H836.211ZM944.831,41.362,929.647.717q-2.8-7.475-10.044-31.535h-1.168Q911.194-6.758,908.391.717L893.207,41.362ZM1010.7-60.017h33.871V70.794H1131v29.433H1010.7Z" transform="translate(269.645 63.32)" fill="none" stroke="#000" stroke-width="1" opacity="0.202"></path></svg>